<?xml version="1.0" standalone="no"?>
<!DOCTYPE svg PUBLIC "-//W3C//DTD SVG 20010904//EN"
 "http://www.w3.org/TR/2001/REC-SVG-20010904/DTD/svg10.dtd">
<svg version="1.0" xmlns="http://www.w3.org/2000/svg"
 width="100.000000pt" height="100.000000pt" viewBox="0 0 100.000000 100.000000"
 preserveAspectRatio="xMidYMid meet">
<metadata>
Created by potrace 1.11, written by Peter Selinger 2001-2013
</metadata>
<g transform="translate(0.000000,100.000000) scale(0.100000,-0.100000)"
fill="#000000" stroke="none">
<path d="M425 991 c-11 -5 -31 -21 -45 -36 -24 -26 -25 -32 -25 -158 -1 -140
-4 -151 -57 -220 -36 -45 -99 -188 -105 -238 -5 -34 -3 -36 20 -32 28 5 69
-39 131 -142 50 -84 46 -135 -11 -135 -25 0 -185 37 -220 51 -20 7 -21 11 -11
34 8 18 8 35 1 60 -12 38 -9 45 21 45 27 0 66 27 66 46 0 10 -5 9 -20 -6 -11
-11 -30 -20 -42 -20 -41 0 -51 -14 -44 -57 4 -22 2 -52 -4 -68 -10 -26 -9 -32
10 -47 12 -10 32 -18 44 -18 11 0 61 -12 110 -26 l88 -26 52 26 c44 22 64 26
142 26 84 0 92 -2 112 -25 33 -37 83 -34 135 9 23 18 65 45 93 59 76 38 76 52
6 109 -12 10 -22 28 -22 40 0 15 -3 19 -10 12 -18 -18 8 -71 41 -84 42 -18 33
-41 -25 -63 -28 -10 -68 -31 -90 -48 -43 -31 -77 -37 -94 -16 -16 18 -24 235
-10 243 6 4 17 -2 24 -12 39 -56 59 -58 115 -7 41 37 41 38 36 98 -6 71 -43
161 -93 221 -51 63 -74 124 -84 220 -14 135 -56 185 -157 191 -32 1 -67 -1
-78 -6z m149 -60 c3 -5 -1 -11 -9 -14 -9 -4 -12 -1 -8 9 6 16 10 17 17 5z m4
-135 c2 -20 -1 -36 -6 -36 -5 0 -9 12 -9 26 0 41 -43 55 -57 18 -9 -24 4 -43
41 -55 32 -10 35 -14 30 -43 -3 -20 4 -46 19 -76 52 -98 76 -163 81 -217 3
-32 9 -63 14 -68 9 -12 -9 -39 -33 -48 -19 -7 -20 -15 -19 -112 1 -33 -3 -73
-8 -90 -7 -23 -8 -16 -4 30 l6 60 -29 -26 c-16 -15 -39 -32 -51 -38 -28 -14
-98 -14 -125 0 -26 14 -33 6 -18 -21 6 -12 10 -24 7 -26 -2 -3 -13 13 -24 35
-16 32 -17 41 -7 45 31 12 14 51 -40 95 -66 52 -98 85 -74 76 13 -5 16 4 20
48 2 31 16 79 31 109 15 30 27 64 27 75 0 12 8 39 18 62 l19 41 23 -25 c30
-32 42 -32 98 7 59 39 56 37 50 44 -3 3 -23 -4 -44 -15 -40 -22 -79 -27 -88
-12 -3 5 11 11 32 14 41 6 117 35 110 43 -3 2 -21 -3 -41 -11 -61 -26 -147
-13 -147 21 0 10 41 39 51 37 3 -1 4 9 1 23 -5 30 -30 43 -43 23 -7 -11 -9
-11 -9 2 0 9 7 22 15 29 20 17 45 -3 45 -36 0 -17 6 -24 19 -24 11 0 22 -6 24
-12 3 -7 6 4 6 24 2 79 82 83 89 4z m-184 -22 c3 -8 2 -12 -4 -9 -6 3 -10 10
-10 16 0 14 7 11 14 -7z m256 -106 c0 -6 -7 -5 -15 2 -8 7 -15 17 -15 22 0 6
7 5 15 -2 8 -7 15 -17 15 -22z m80 -182 c0 -12 -5 -7 -19 24 -11 24 -11 24 3
6 9 -11 16 -24 16 -30z m17 -103 c-3 -10 -5 -2 -5 17 0 19 2 27 5 18 2 -10 2
-26 0 -35z m-500 -15 c-3 -7 -5 -2 -5 12 0 14 2 19 5 13 2 -7 2 -19 0 -25z
m493 -18 c0 -5 -5 -10 -11 -10 -5 0 -7 5 -4 10 3 6 8 10 11 10 2 0 4 -4 4 -10z"/>
</g>
</svg>
